<svg xmlns="http://www.w3.org/2000/svg"><symbol id="shape-arrow-down" viewBox="-70 67 22 12"><path d="M-69 68.7l.7-.7 9.3 8.6 9.4-8.6.6.7-10 9.3z"/></symbol><symbol id="shape-arrow-left" viewBox="-65 62 12 22"><path d="M-54.7 63l.7.7-8.6 9.3 8.6 9.4-.7.6-9.3-10z"/></symbol><symbol id="shape-arrow-right" viewBox="-65 62 12 22"><path d="M-54 73l-9.3 10-.7-.6 8.6-9.4-8.6-9.3.7-.7z"/></symbol><symbol id="shape-arrow-up" viewBox="-70 67 22 12"><path d="M-59 68l10 9.3-.6.7-9.4-8.6-9.3 8.6-.7-.7z"/></symbol><symbol id="shape-close" viewBox="-10.4 -13.7 20.7 20.7"><path d="M10.4-13l-.8-.7L0-4.1l-9.6-9.6-.8.7 9.7 9.6-9.7 9.7.8.7L0-2.7 9.6 7l.8-.7L.7-3.4z"/></symbol></svg>