<?xml version="1.0" encoding="utf-8"?>
<!-- Generator: Adobe Illustrator 17.1.0, SVG Export Plug-In . SVG Version: 6.00 Build 0)  -->
<!DOCTYPE svg PUBLIC "-//W3C//DTD SVG 1.1//EN" "http://www.w3.org/Graphics/SVG/1.1/DTD/svg11.dtd">
<svg version="1.1" id="Layer_1" xmlns="http://www.w3.org/2000/svg" xmlns:xlink="http://www.w3.org/1999/xlink" x="0px" y="0px"
	 width="1322px" height="864px" viewBox="0 0 1322 864" enable-background="new 0 0 1322 864" xml:space="preserve">
<rect fill="#FFFFFF" width="1322" height="864"/>
<rect x="377.7" opacity="1.000000e-02" enable-background="new    " width="188.9" height="864"/>
<rect x="755.4" opacity="1.000000e-02" enable-background="new    " width="188.9" height="864"/>
<rect x="944.3" opacity="2.000000e-02" enable-background="new    " width="188.9" height="864"/>
<rect x="188.9" opacity="2.000000e-02" enable-background="new    " width="188.9" height="864"/>
<rect x="0" opacity="3.000000e-02" enable-background="new    " width="188.9" height="864"/>
<rect x="1133.1" opacity="3.000000e-02" enable-background="new    " width="188.9" height="864"/>
<polygon opacity="1.000000e-02" enable-background="new    " points="661,217.2 0,63.2 0,172.7 0,173.1 0,282.6 661,436.7 
	1322,282.6 1322,173.1 1322,172.7 1322,63.2 "/>
<polygon opacity="2.000000e-02" enable-background="new    " points="661,436.8 0,282.8 0,392.6 0,502.5 661,656.7 1322,502.5 
	1322,392.6 1322,282.8 "/>
<polygon opacity="4.000000e-02" enable-background="new    " points="0,831.6 0,863.8 138,863.8 609.9,863.8 0,721.8 "/>
<polygon opacity="4.000000e-02" enable-background="new    " points="712.1,863.8 1184,863.8 1322,863.8 1322,831.6 1322,721.8 "/>
<polygon opacity="3.000000e-02" enable-background="new    " points="661,656.7 0,502.6 0,611.8 0,612.5 0,721.6 609.9,863.8 
	712.1,863.8 1322,721.6 1322,612.5 1322,611.8 1322,502.6 "/>
</svg>
