<svg style="display: none;" viewBox="0 0 20 20" xmlns="http://www.w3.org/2000/svg">
    <symbol viewBox="-10.4 -10.4 20.7 11.1" id="shape-arrow-down">
        <title>arrow-down</title>
        <g>
            <polygon points="0,0.7 -10.4,-9.6 -9.6,-10.4 0,-0.7 9.6,-10.4 10.4,-9.6 	" /> </g>
    </symbol>
    <symbol viewBox="-8.4 -12.4 11.1 26.8" id="shape-arrow-left">
        <title>arrow-left</title>
        <g>
            <polygon points="2,8.4 2.7,7.6 -6.9,-2 2.7,-11.6 2,-12.4 -8.4,-2 	" /> </g>
        <g>
            <polygon points="2,14.5 2.7,13.7 -6.9,4.1 2.7,-5.5 2,-6.3 -8.4,4.1 	" /> </g>
    </symbol>
    <symbol viewBox="-8.4 -12.4 11.1 26.8" id="shape-arrow-right">
        <title>arrow-right</title>
        <g>
            <polygon points="-7.6,8.4 -8.4,7.6 1.3,-2 -8.4,-11.6 -7.6,-12.4 2.7,-2 	" /> </g>
        <g>
            <polygon points="-7.6,14.5 -8.4,13.7 1.3,4.1 -8.4,-5.5 -7.6,-6.3 2.7,4.1 	" /> </g>
    </symbol>
    <symbol viewBox="-10.4 -13.7 20.7 20.7" id="shape-close">
        <title>close</title>
        <path d="M5.5,6" />
        <polygon points="10.4,-13 9.6,-13.7 0,-4.1 -9.6,-13.7 -10.4,-13 -0.7,-3.4 -10.4,6.3 -9.6,7 0,-2.7 9.6,7 10.4,6.3 

	0.7,-3.4 " /> </symbol>
    <symbol viewBox="-10.4 -10.4 20.7 11.1" id="shape-select-box-arrow">
        <title>select-box-arrow</title>
        <g>
            <polygon points="0,0.7 -10.4,-9.6 -9.6,-10.4 0,-0.7 9.6,-10.4 10.4,-9.6 	" /> </g>
    </symbol>
</svg>