<svg style="display: none;" xmlns="http://www.w3.org/2000/svg">
    <symbol viewBox="-70 67 22 12" id="shape-arrow-down">
        <title>arrow-down</title>
        <g>
            <polygon points="-69,68.7 -68.3,68 -59,76.6 -49.6,68 -49,68.7 -59,78 	" /> </g>
    </symbol>
    <symbol viewBox="-65 62 12 22" id="shape-arrow-left">
        <title>arrow-left</title>
        <g>
            <polygon points="-54.7,63 -54,63.7 -62.6,73 -54,82.4 -54.7,83 -64,73 	" /> </g>
    </symbol>
    <symbol viewBox="-65 62 12 22" id="shape-arrow-right">
        <title>arrow-right</title>
        <g>
            <polygon points="-54,73 -63.3,83 -64,82.4 -55.4,73 -64,63.7 -63.3,63 	" /> </g>
    </symbol>
    <symbol viewBox="-70 67 22 12" id="shape-arrow-up">
        <title>arrow-up</title>
        <g>
            <polygon points="-59,68 -49,77.3 -49.6,78 -59,69.4 -68.3,78 -69,77.3 	" /> </g>
    </symbol>
    <symbol viewBox="-10.4 -13.7 20.7 20.7" id="shape-close">
        <title>close</title>
        <path d="M5.5,6" />
        <polygon points="10.4,-13 9.6,-13.7 0,-4.1 -9.6,-13.7 -10.4,-13 -0.7,-3.4 -10.4,6.3 -9.6,7 0,-2.7 9.6,7 10.4,6.3 
	0.7,-3.4 " /> </symbol>
</svg>